<?xml version="1.0" encoding="utf-8"?>
<!-- Generator: Adobe Illustrator 19.0.0, SVG Export Plug-In . SVG Version: 6.00 Build 0)  -->
<svg version="1.1" id="Layer_1" xmlns="http://www.w3.org/2000/svg" xmlns:xlink="http://www.w3.org/1999/xlink" x="0px" y="0px"
	 viewBox="-164 42.3 512 512" style="enable-background:new -164 42.3 512 512;" xml:space="preserve">
<style type="text/css">
	.st0{fill:url(#XMLID_2_);stroke:#231F20;stroke-width:2.7543;stroke-miterlimit:10;}
	.st1{fill:#234A60;}
	.st2{fill:#0A6C94;}
	.st3{opacity:0.75;}
	.st4{fill:#F4867A;}
	.st5{fill:#7FD3F6;}
	.st6{fill:#E73625;}
</style>
<g id="XMLID_34_">
	
		<linearGradient id="XMLID_2_" gradientUnits="userSpaceOnUse" x1="-218.3189" y1="138.7411" x2="53.4972" y2="138.7411" gradientTransform="matrix(4.489700e-11 -1 -1 -4.489700e-11 161.7411 162.8611)">
		<stop  offset="0.1575" style="stop-color:#000000"/>
		<stop  offset="0.2125" style="stop-color:#FFFFFF"/>
		<stop  offset="1" style="stop-color:#FFFFFF"/>
	</linearGradient>
	<rect id="XMLID_37_" x="-62.1" y="106.4" class="st0" width="170.2" height="274.8"/>
</g>
<g>
	<path class="st1" d="M348,490.3c0,35.2-28.8,64-64,64h-384c-35.2,0-64-28.8-64-64v-384c0-35.2,28.8-64,64-64h384
		c35.2,0,64,28.8,64,64V490.3z"/>
</g>
<g id="XMLID_12_">
	<path id="XMLID_4_" class="st2" d="M222.5,512.6L222.5,512.6c-66.7-47.9-110.1-126.1-110.1-214.4c0-88.2,43.3-166.3,109.8-214.2
		c0,0,0.1,0,0.1-0.1c0.1,0,0.1-0.1,0.2-0.1l0,0c4.2-3,9.3-4.8,14.9-4.8c13.9,0,25.3,11.3,25.3,25.3c0,6.7-2.6,12.8-6.9,17.4
		c0.1,0.1,0.1,0.2,0.2,0.3c-42,46.7-67.6,108.6-67.6,176.3c0,67.8,25.5,129.5,67.5,176.3c-0.1,0.1-0.1,0.1-0.2,0.2
		c4.4,4.5,7,10.7,7,17.5c0,13.9-11.3,25.3-25.3,25.3C231.7,517.4,226.6,515.6,222.5,512.6z"/>
	<g id="XMLID_18_" class="st3">
		<g id="XMLID_23_">
			
				<image style="overflow:visible;enable-background:new    ;" width="167" height="96" xlink:href="80319A863DEA2DB7.png"  transform="matrix(1 0 0 1 68.1 281.21)">
			</image>
		</g>
		<g id="XMLID_19_">
			
				<image style="overflow:visible;enable-background:new    ;" width="201" height="123" xlink:href="80319A863DEA2DB5.png"  transform="matrix(1 0 0 1 78.1 352.21)">
			</image>
		</g>
	</g>
	<path id="XMLID_3_" class="st4" d="M-122.3,428.5L-122.3,428.5c47.8-66.6,126-110.1,214.4-110.1c88.2,0,166.3,43.3,214.2,109.8
		c0,0,0,0.1,0.1,0.1c0,0.1,0.1,0.1,0.1,0.2l0,0c3,4.2,4.8,9.3,4.8,14.9c0,13.9-11.3,25.3-25.3,25.3c-6.7,0-12.8-2.6-17.4-6.9
		c-0.1,0.1-0.2,0.1-0.3,0.2c-46.7-42-108.6-67.6-176.3-67.6c-67.8,0-129.5,25.5-176.3,67.5c-0.1-0.1-0.1-0.1-0.2-0.2
		c-4.5,4.4-10.7,7-17.5,7c-13.9,0-25.3-11.3-25.3-25.3C-127.1,437.8-125.4,432.7-122.3,428.5z"/>
	<g id="XMLID_15_" class="st3">
		<g id="XMLID_20_">
			
				<image style="overflow:visible;enable-background:new    ;" width="96" height="167" xlink:href="80319A863DEA2DBB.png"  transform="matrix(1 0 0 1 13.1 273.21)">
			</image>
		</g>
		<g id="XMLID_16_">
			
				<image style="overflow:visible;enable-background:new    ;" width="118" height="202" xlink:href="80319A863DEA2DBD.png"  transform="matrix(1 0 0 1 -85.9 282.21)">
			</image>
		</g>
	</g>
	<path id="XMLID_6_" class="st5" d="M-38.3,512.6L-38.3,512.6C28.4,464.8,71.9,386.5,71.9,298.2C71.9,210,28.6,131.9-37.9,84
		c0,0-0.1,0-0.1-0.1c-0.1,0-0.1-0.1-0.2-0.1l0,0c-4.2-3-9.3-4.8-14.9-4.8c-13.9,0-25.3,11.3-25.3,25.3c0,6.7,2.6,12.8,6.9,17.4
		c-0.1,0.1-0.1,0.2-0.2,0.3c42,46.7,67.6,108.6,67.6,176.3c0,67.8-25.5,129.5-67.5,176.3c0.1,0.1,0.1,0.1,0.2,0.2
		c-4.4,4.5-7,10.7-7,17.5c0,13.9,11.3,25.3,25.3,25.3C-47.5,517.4-42.4,515.6-38.3,512.6z"/>
	<g id="XMLID_13_" class="st3">
		<g id="XMLID_17_">
			
				<image style="overflow:visible;enable-background:new    ;" width="167" height="96" xlink:href="80319A863DEA2DBF.png"  transform="matrix(1 0 0 1 -49.9 219.21)">
			</image>
		</g>
		<g id="XMLID_14_">
			
				<image style="overflow:visible;enable-background:new    ;" width="201" height="122" xlink:href="80319A863DEA2DBC.png"  transform="matrix(1 0 0 1 -93.9 122.21)">
			</image>
		</g>
	</g>
	<path id="XMLID_5_" class="st6" d="M-122.3,167.8L-122.3,167.8c47.8,66.7,126,110.1,214.4,110.1c88.2,0,166.3-43.3,214.2-109.8
		c0,0,0-0.1,0.1-0.1c0-0.1,0.1-0.1,0.1-0.2l0,0c3-4.2,4.8-9.3,4.8-14.9c0-13.9-11.3-25.3-25.3-25.3c-6.7,0-12.8,2.6-17.4,6.9
		c-0.1-0.1-0.2-0.1-0.3-0.2c-46.7,42-108.6,67.6-176.3,67.6c-67.8,0-129.5-25.5-176.3-67.5c-0.1,0.1-0.1,0.1-0.2,0.2
		c-4.5-4.4-10.7-7-17.5-7c-13.9,0-25.3,11.3-25.3,25.3C-127.1,158.6-125.4,163.7-122.3,167.8z"/>
	<g id="XMLID_11_" class="st3">
		<g id="XMLID_10_">
			
				<image style="overflow:visible;enable-background:new    ;" width="96" height="167" xlink:href="80319A863DEA2DB4.png"  transform="matrix(1 0 0 1 75.1 156.21)">
			</image>
		</g>
		<g id="XMLID_9_">
			
				<image style="overflow:visible;enable-background:new    ;" width="121" height="202" xlink:href="80319A863DEA2DB6.png"  transform="matrix(1 0 0 1 146.1 111.21)">
			</image>
		</g>
	</g>
	<path id="XMLID_7_" class="st2" d="M222.4,83.8L222.4,83.8c-0.1,0-0.1,0.1-0.2,0.1c0,0-0.1,0-0.1,0.1
		c-66.5,47.9-109.8,126-109.8,214.2h75.8c0-67.8,25.6-129.6,67.6-176.3c-0.1-0.1-0.1-0.2-0.2-0.3c4.3-4.5,6.9-10.6,6.9-17.4
		c0-13.9-11.3-25.3-25.3-25.3C231.7,78.9,226.6,80.7,222.4,83.8z"/>
</g>
</svg>
